<svg width="273" height="65" viewBox="0 0 273 65" fill="none" xmlns="http://www.w3.org/2000/svg">
<path d="M93.55 50V15H104.9C109 15 112.367 15.7167 115 17.15C117.667 18.5833 119.633 20.6167 120.9 23.25C122.2 25.85 122.85 28.95 122.85 32.55C122.85 36.1167 122.2 39.2167 120.9 41.85C119.633 44.45 117.667 46.4667 115 47.9C112.367 49.3 109 50 104.9 50H93.55ZM98.85 45.5H104.7C107.867 45.5 110.367 44.9833 112.2 43.95C114.067 42.9167 115.4 41.4333 116.2 39.5C117.033 37.5667 117.45 35.25 117.45 32.55C117.45 29.85 117.033 27.5167 116.2 25.55C115.4 23.5833 114.067 22.0833 112.2 21.05C110.367 19.9833 107.867 19.45 104.7 19.45H98.85V45.5ZM131.506 20.5C130.506 20.5 129.673 20.2 129.006 19.6C128.373 18.9667 128.056 18.1833 128.056 17.25C128.056 16.3167 128.373 15.55 129.006 14.95C129.673 14.3167 130.506 14 131.506 14C132.506 14 133.323 14.3167 133.956 14.95C134.623 15.55 134.956 16.3167 134.956 17.25C134.956 18.1833 134.623 18.9667 133.956 19.6C133.323 20.2 132.506 20.5 131.506 20.5ZM128.856 50V25.2H134.156V50H128.856ZM151.053 50.6C147.919 50.6 145.336 49.8333 143.303 48.3C141.269 46.7667 140.103 44.7333 139.803 42.2H145.153C145.419 43.3333 146.053 44.3167 147.053 45.15C148.053 45.95 149.369 46.35 151.003 46.35C152.603 46.35 153.769 46.0167 154.503 45.35C155.236 44.6833 155.603 43.9167 155.603 43.05C155.603 41.7833 155.086 40.9333 154.053 40.5C153.053 40.0333 151.653 39.6167 149.853 39.25C148.453 38.95 147.053 38.55 145.653 38.05C144.286 37.55 143.136 36.85 142.203 35.95C141.303 35.0167 140.853 33.7667 140.853 32.2C140.853 30.0333 141.686 28.2333 143.353 26.8C145.019 25.3333 147.353 24.6 150.353 24.6C153.119 24.6 155.353 25.2667 157.053 26.6C158.786 27.9333 159.803 29.8167 160.103 32.25H155.003C154.836 31.1833 154.336 30.35 153.503 29.75C152.703 29.15 151.619 28.85 150.253 28.85C148.919 28.85 147.886 29.1333 147.153 29.7C146.419 30.2333 146.053 30.9333 146.053 31.8C146.053 32.6667 146.553 33.35 147.553 33.85C148.586 34.35 149.936 34.8 151.603 35.2C153.269 35.5667 154.803 36 156.203 36.5C157.636 36.9667 158.786 37.6667 159.653 38.6C160.519 39.5333 160.953 40.9 160.953 42.7C160.986 44.9667 160.103 46.85 158.303 48.35C156.536 49.85 154.119 50.6 151.053 50.6ZM178.489 50.6C176.055 50.6 173.872 50.05 171.939 48.95C170.039 47.85 168.539 46.3333 167.439 44.4C166.372 42.4333 165.839 40.1667 165.839 37.6C165.839 35.0333 166.372 32.7833 167.439 30.85C168.539 28.8833 170.039 27.35 171.939 26.25C173.872 25.15 176.055 24.6 178.489 24.6C181.555 24.6 184.122 25.4 186.189 27C188.289 28.6 189.639 30.7667 190.239 33.5H184.689C184.355 32.1333 183.622 31.0667 182.489 30.3C181.355 29.5333 180.022 29.15 178.489 29.15C177.189 29.15 175.989 29.4833 174.889 30.15C173.789 30.7833 172.905 31.7333 172.239 33C171.572 34.2333 171.239 35.7667 171.239 37.6C171.239 39.4333 171.572 40.9833 172.239 42.25C172.905 43.4833 173.789 44.4333 174.889 45.1C175.989 45.7667 177.189 46.1 178.489 46.1C180.022 46.1 181.355 45.7167 182.489 44.95C183.622 44.1833 184.355 43.1 184.689 41.7H190.239C189.672 44.3667 188.339 46.5167 186.239 48.15C184.139 49.7833 181.555 50.6 178.489 50.6ZM207.587 50.6C205.22 50.6 203.087 50.0667 201.187 49C199.32 47.9 197.837 46.3833 196.737 44.45C195.637 42.4833 195.087 40.2 195.087 37.6C195.087 35 195.637 32.7333 196.737 30.8C197.87 28.8333 199.387 27.3167 201.287 26.25C203.187 25.15 205.303 24.6 207.637 24.6C210.003 24.6 212.12 25.15 213.987 26.25C215.887 27.3167 217.387 28.8333 218.487 30.8C219.62 32.7333 220.187 35 220.187 37.6C220.187 40.2 219.62 42.4833 218.487 44.45C217.387 46.3833 215.887 47.9 213.987 49C212.087 50.0667 209.953 50.6 207.587 50.6ZM207.587 46.05C208.853 46.05 210.02 45.7333 211.087 45.1C212.187 44.4667 213.07 43.5333 213.737 42.3C214.403 41.0333 214.737 39.4667 214.737 37.6C214.737 35.7333 214.403 34.1833 213.737 32.95C213.103 31.6833 212.237 30.7333 211.137 30.1C210.07 29.4667 208.903 29.15 207.637 29.15C206.37 29.15 205.187 29.4667 204.087 30.1C203.02 30.7333 202.153 31.6833 201.487 32.95C200.82 34.1833 200.487 35.7333 200.487 37.6C200.487 39.4667 200.82 41.0333 201.487 42.3C202.153 43.5333 203.02 44.4667 204.087 45.1C205.153 45.7333 206.32 46.05 207.587 46.05ZM225.918 50V25.2H230.668L231.118 29.9C231.985 28.2667 233.185 26.9833 234.718 26.05C236.285 25.0833 238.168 24.6 240.368 24.6V30.15H238.918C237.452 30.15 236.135 30.4 234.968 30.9C233.835 31.3667 232.918 32.1833 232.218 33.35C231.552 34.4833 231.218 36.0667 231.218 38.1V50H225.918ZM255.529 50.6C253.129 50.6 251.012 50.0333 249.179 48.9C247.346 47.7667 245.912 46.2167 244.879 44.25C243.846 42.2833 243.329 40.05 243.329 37.55C243.329 35.05 243.846 32.8333 244.879 30.9C245.912 28.9333 247.346 27.4 249.179 26.3C251.046 25.1667 253.179 24.6 255.579 24.6C257.546 24.6 259.262 24.9833 260.729 25.75C262.229 26.5167 263.396 27.6 264.229 29V14H269.529V50H264.779L264.229 46.15C263.429 47.3167 262.329 48.35 260.929 49.25C259.529 50.15 257.729 50.6 255.529 50.6ZM256.479 46C258.746 46 260.596 45.2167 262.029 43.65C263.496 42.0833 264.229 40.0667 264.229 37.6C264.229 35.1 263.496 33.0833 262.029 31.55C260.596 29.9833 258.746 29.2 256.479 29.2C254.212 29.2 252.346 29.9833 250.879 31.55C249.412 33.0833 248.679 35.1 248.679 37.6C248.679 39.2333 249.012 40.6833 249.679 41.95C250.346 43.2167 251.262 44.2167 252.429 44.95C253.629 45.65 254.979 46 256.479 46Z" fill="white"/>
<path d="M51.8238 13.8793C47.9446 12.071 43.7446 10.7585 39.3696 10.0001C39.3313 9.99891 39.2931 10.0061 39.2579 10.0212C39.2226 10.0363 39.191 10.059 39.1655 10.0876C38.6405 11.0501 38.028 12.3043 37.6196 13.2668C32.9792 12.5668 28.2601 12.5668 23.6196 13.2668C23.2113 12.2751 22.5988 11.0501 22.0446 10.0876C22.0155 10.0293 21.928 10.0001 21.8405 10.0001C17.4655 10.7585 13.2946 12.071 9.38631 13.8793C9.35715 13.8793 9.32798 13.9085 9.29881 13.9376C1.36548 25.8085 -0.822021 37.3585 0.257145 48.7918C0.257145 48.8501 0.286312 48.9085 0.344645 48.9376C5.59465 52.7876 10.6405 55.121 15.628 56.6668C15.7155 56.696 15.803 56.6668 15.8321 56.6085C16.9988 55.0043 18.0488 53.3126 18.953 51.5335C19.0113 51.4168 18.953 51.3001 18.8363 51.271C17.1738 50.6293 15.5988 49.871 14.053 48.996C13.9363 48.9376 13.9363 48.7626 14.0238 48.6751C14.3446 48.4418 14.6655 48.1793 14.9863 47.946C15.0446 47.8876 15.1321 47.8876 15.1905 47.9168C25.2238 52.496 36.0446 52.496 45.9613 47.9168C46.0196 47.8876 46.1071 47.8876 46.1655 47.946C46.4863 48.2085 46.8071 48.4418 47.128 48.7043C47.2446 48.7918 47.2446 48.9668 47.0988 49.0251C45.5821 49.9293 43.978 50.6585 42.3155 51.3001C42.1988 51.3293 42.1696 51.4751 42.1988 51.5626C43.1321 53.3418 44.1821 55.0335 45.3196 56.6376C45.4071 56.6668 45.4946 56.696 45.5821 56.6668C50.5988 55.121 55.6446 52.7876 60.8946 48.9376C60.953 48.9085 60.9821 48.8501 60.9821 48.7918C62.2655 35.5793 58.853 24.1168 51.9405 13.9376C51.9113 13.9085 51.8821 13.8793 51.8238 13.8793ZM20.4696 41.821C17.4655 41.821 14.9571 39.0501 14.9571 35.6376C14.9571 32.2251 17.4071 29.4543 20.4696 29.4543C23.5613 29.4543 26.0113 32.2543 25.9821 35.6376C25.9821 39.0501 23.5321 41.821 20.4696 41.821ZM40.7988 41.821C37.7946 41.821 35.2863 39.0501 35.2863 35.6376C35.2863 32.2251 37.7363 29.4543 40.7988 29.4543C43.8905 29.4543 46.3405 32.2543 46.3113 35.6376C46.3113 39.0501 43.8905 41.821 40.7988 41.821Z" fill="white"/>
</svg>
