<svg width="227" height="65" viewBox="0 0 227 65" fill="none" xmlns="http://www.w3.org/2000/svg">
<path d="M108.75 50.6C105.45 50.6 102.567 49.85 100.1 48.35C97.6333 46.85 95.7167 44.75 94.35 42.05C92.9833 39.35 92.3 36.2 92.3 32.6C92.3 29.0333 93 25.8833 94.4 23.15C95.8 20.4167 97.7833 18.2833 100.35 16.75C102.95 15.1833 106.017 14.4 109.55 14.4C113.55 14.4 116.883 15.3667 119.55 17.3C122.217 19.2333 123.95 21.9 124.75 25.3H118.75C118.217 23.4333 117.167 21.9667 115.6 20.9C114.033 19.8333 112.017 19.3 109.55 19.3C105.883 19.3 103 20.4833 100.9 22.85C98.8 25.2167 97.75 28.4833 97.75 32.65C97.75 36.8167 98.7833 40.0667 100.85 42.4C102.917 44.7333 105.667 45.9 109.1 45.9C112.567 45.9 115.167 44.9167 116.9 42.95C118.667 40.9833 119.7 38.3667 120 35.1H110.5V31H125.35V50H120.5L120.05 44.85C118.883 46.6833 117.417 48.1 115.65 49.1C113.883 50.1 111.583 50.6 108.75 50.6ZM131.582 50V25.2H136.282L136.732 28.7C137.532 27.4333 138.582 26.4333 139.882 25.7C141.216 24.9667 142.749 24.6 144.482 24.6C148.416 24.6 151.149 26.15 152.682 29.25C153.582 27.8167 154.782 26.6833 156.282 25.85C157.816 25.0167 159.466 24.6 161.232 24.6C164.332 24.6 166.766 25.5333 168.532 27.4C170.299 29.2667 171.182 32.05 171.182 35.75V50H165.882V36.3C165.882 31.5 164.049 29.1 160.382 29.1C158.516 29.1 156.982 29.8 155.782 31.2C154.616 32.6 154.032 34.6 154.032 37.2V50H148.732V36.3C148.732 31.5 146.882 29.1 143.182 29.1C141.349 29.1 139.832 29.8 138.632 31.2C137.466 32.6 136.882 34.6 136.882 37.2V50H131.582ZM185.783 50.6C183.683 50.6 181.95 50.25 180.583 49.55C179.217 48.85 178.2 47.9333 177.533 46.8C176.867 45.6333 176.533 44.3667 176.533 43C176.533 40.6 177.467 38.7 179.333 37.3C181.2 35.9 183.867 35.2 187.333 35.2H193.833V34.75C193.833 32.8167 193.3 31.3667 192.233 30.4C191.2 29.4333 189.85 28.95 188.183 28.95C186.717 28.95 185.433 29.3167 184.333 30.05C183.267 30.75 182.617 31.8 182.383 33.2H177.083C177.25 31.4 177.85 29.8667 178.883 28.6C179.95 27.3 181.283 26.3167 182.883 25.65C184.517 24.95 186.3 24.6 188.233 24.6C191.7 24.6 194.383 25.5167 196.283 27.35C198.183 29.15 199.133 31.6167 199.133 34.75V50H194.533L194.083 45.75C193.383 47.1167 192.367 48.2667 191.033 49.2C189.7 50.1333 187.95 50.6 185.783 50.6ZM186.833 46.3C188.267 46.3 189.467 45.9667 190.433 45.3C191.433 44.6 192.2 43.6833 192.733 42.55C193.3 41.4167 193.65 40.1667 193.783 38.8H187.883C185.783 38.8 184.283 39.1667 183.383 39.9C182.517 40.6333 182.083 41.55 182.083 42.65C182.083 43.7833 182.5 44.6833 183.333 45.35C184.2 45.9833 185.367 46.3 186.833 46.3ZM208.313 20.5C207.313 20.5 206.48 20.2 205.813 19.6C205.18 18.9667 204.863 18.1833 204.863 17.25C204.863 16.3167 205.18 15.55 205.813 14.95C206.48 14.3167 207.313 14 208.313 14C209.313 14 210.13 14.3167 210.763 14.95C211.43 15.55 211.763 16.3167 211.763 17.25C211.763 18.1833 211.43 18.9667 210.763 19.6C210.13 20.2 209.313 20.5 208.313 20.5ZM205.663 50V25.2H210.963V50H205.663ZM217.959 50V14H223.259V50H217.959Z" fill="white"/>
<path d="M4.77272 57.5139H15.9092V30.4681L0 18.5361V52.7412C0 55.3821 2.13967 57.5139 4.77272 57.5139Z" fill="white"/>
<path d="M54.0908 57.5139H65.2273C67.8683 57.5139 70.0001 55.3741 70.0001 52.7412V18.5361L54.0908 30.4681" fill="white"/>
<path d="M54.0908 9.78631V30.4684L70.0001 18.5364V12.1728C70.0001 6.27038 63.2625 2.90555 58.5454 6.44538" fill="white"/>
<path d="M15.9106 30.4681V9.78607L35.0018 24.1044L54.0929 9.78607V30.4681L35.0018 44.7864" fill="white"/>
<path d="M0 12.1728V18.5364L15.9092 30.4684V9.78631L11.4546 6.44538C6.72951 2.90555 0 6.27038 0 12.1728Z" fill="white"/>
</svg>
