<svg width="483" height="70" viewBox="0 0 483 70" fill="none" xmlns="http://www.w3.org/2000/svg">
<path d="M7.28975e-05 64.4729V64.4744C7.28975e-05 67.526 2.4739 69.9999 5.5256 69.9999H15.1198V54.8799H0L7.28975e-05 64.4729ZM54.88 68.5417L68.5417 54.88H54.8799L54.88 68.5417ZM64.473 7.28975e-05H54.8803V15.12H70.0002V5.52728V5.52458C70.0002 2.47375 67.5269 0.000437663 64.4759 0.000437663H64.4731H64.4733L64.473 7.28975e-05ZM38.5058 29.1755L40.2616 31.8384L43.75 29.298V46.0514H47.212V24.6346H44.8L38.5058 29.1755ZM32.4013 34.8075V34.618C33.216 34.1769 33.8885 33.5696 34.3926 32.8374L34.405 32.8185C34.9165 32.0592 35.2215 31.1238 35.2215 30.1172C35.2215 30.0599 35.2204 30.0027 35.2186 29.946L35.2188 29.9542C35.219 29.9334 35.2191 29.9088 35.2191 29.8842C35.2191 28.7971 34.8924 27.7865 34.3315 26.9452L34.3437 26.9646C33.7362 26.0677 32.9158 25.3578 31.9531 24.8977L31.917 24.8821C30.9338 24.4082 29.779 24.1313 28.5596 24.1313C28.5125 24.1313 28.4656 24.1318 28.4188 24.1326H28.4259C28.3454 24.1289 28.251 24.127 28.1562 24.127C26.6263 24.127 25.2166 24.6412 24.0904 25.5063L24.1062 25.4946C23.0691 26.2964 22.2718 27.3614 21.8093 28.5903L21.7932 28.6386L24.958 29.9569C25.2089 29.2248 25.623 28.6038 26.1589 28.1138L26.1623 28.1106C26.7151 27.6417 27.4368 27.3563 28.2251 27.3563C28.2864 27.3563 28.3474 27.3581 28.4079 27.3614L28.3996 27.3611C28.4422 27.3592 28.4922 27.3582 28.5425 27.3582C29.3903 27.3582 30.17 27.6493 30.7872 28.1371L30.7796 28.1313C31.3553 28.5947 31.7205 29.2995 31.7205 30.0894C31.7205 30.1218 31.72 30.1541 31.7187 30.1862L31.7189 30.1817C31.7203 30.2163 31.7213 30.2568 31.7213 30.2975C31.7213 31.1699 31.3119 31.9468 30.6748 32.4464L30.669 32.4509C29.9978 32.9691 29.1446 33.2815 28.2186 33.2815C28.1715 33.2815 28.1246 33.2808 28.078 33.2791L28.0848 33.2793H26.4311V36.4439H28.2774C28.326 36.4421 28.3831 36.441 28.4404 36.441C29.5037 36.441 30.4829 36.8009 31.2629 37.4056L31.2524 37.3977C31.9773 37.9524 32.4401 38.818 32.4401 39.7915C32.4401 39.8144 32.4399 39.8371 32.4394 39.8598V39.8564C32.4399 39.8748 32.4401 39.8966 32.4401 39.9182C32.4401 40.8708 32.0021 41.7211 31.3163 42.2786L31.3107 42.283C30.6127 42.8767 29.7008 43.2378 28.7046 43.2378C28.6733 43.2378 28.6421 43.2374 28.6111 43.2367H28.6157C28.5838 43.2377 28.5462 43.2381 28.5084 43.2381C27.5511 43.2381 26.6739 42.8949 25.9933 42.3246L25.9994 42.3296C25.2537 41.6695 24.7157 40.7899 24.4862 39.7926L24.4799 39.7601L21.2833 41.0785C21.7304 42.7806 22.7455 44.1978 24.1096 45.1495L24.1328 45.1648C25.376 46.0355 26.9199 46.556 28.5853 46.556H28.6205H28.6187C28.6535 46.5565 28.6945 46.5568 28.7357 46.5568C30.0663 46.5568 31.3237 46.243 32.4378 45.6855L32.39 45.7071C33.4744 45.17 34.3634 44.382 35.0055 43.4157L35.0208 43.3912C35.6194 42.471 35.9754 41.3451 35.9754 40.136C35.9754 40.1023 35.9751 40.0685 35.9746 40.0348V40.0399C35.9757 40.0001 35.9763 39.953 35.9763 39.9059C35.9763 38.7447 35.5992 37.6716 34.961 36.8024L34.9712 36.817C34.3179 35.9337 33.4492 35.2449 32.4412 34.8221L32.4014 34.8073L32.4013 34.8075ZM53.4217 16.5783V0H5.52451C2.47353 0 0.000218692 2.47331 0.000218692 5.52429V5.52706V5.52692V53.4216H16.5783V16.5782L53.4217 16.5783ZM16.5783 70H53.4217V53.4217H16.5783V70ZM53.4217 16.5783H70V53.4217H53.4217V16.5783Z" fill="white"/>
<path d="M108.75 50.6C105.45 50.6 102.567 49.85 100.1 48.35C97.6333 46.85 95.7167 44.75 94.35 42.05C92.9833 39.35 92.3 36.2 92.3 32.6C92.3 29.0333 93 25.8833 94.4 23.15C95.8 20.4167 97.7833 18.2833 100.35 16.75C102.95 15.1833 106.017 14.4 109.55 14.4C113.55 14.4 116.883 15.3667 119.55 17.3C122.217 19.2333 123.95 21.9 124.75 25.3H118.75C118.217 23.4333 117.167 21.9667 115.6 20.9C114.033 19.8333 112.017 19.3 109.55 19.3C105.883 19.3 103 20.4833 100.9 22.85C98.8 25.2167 97.75 28.4833 97.75 32.65C97.75 36.8167 98.7833 40.0667 100.85 42.4C102.917 44.7333 105.667 45.9 109.1 45.9C112.567 45.9 115.167 44.9167 116.9 42.95C118.667 40.9833 119.7 38.3667 120 35.1H110.5V31H125.35V50H120.5L120.05 44.85C118.883 46.6833 117.417 48.1 115.65 49.1C113.883 50.1 111.583 50.6 108.75 50.6ZM143.182 50.6C140.816 50.6 138.682 50.0667 136.782 49C134.916 47.9 133.432 46.3833 132.332 44.45C131.232 42.4833 130.682 40.2 130.682 37.6C130.682 35 131.232 32.7333 132.332 30.8C133.466 28.8333 134.982 27.3167 136.882 26.25C138.782 25.15 140.899 24.6 143.232 24.6C145.599 24.6 147.716 25.15 149.582 26.25C151.482 27.3167 152.982 28.8333 154.082 30.8C155.216 32.7333 155.782 35 155.782 37.6C155.782 40.2 155.216 42.4833 154.082 44.45C152.982 46.3833 151.482 47.9 149.582 49C147.682 50.0667 145.549 50.6 143.182 50.6ZM143.182 46.05C144.449 46.05 145.616 45.7333 146.682 45.1C147.782 44.4667 148.666 43.5333 149.332 42.3C149.999 41.0333 150.332 39.4667 150.332 37.6C150.332 35.7333 149.999 34.1833 149.332 32.95C148.699 31.6833 147.832 30.7333 146.732 30.1C145.666 29.4667 144.499 29.15 143.232 29.15C141.966 29.15 140.782 29.4667 139.682 30.1C138.616 30.7333 137.749 31.6833 137.082 32.95C136.416 34.1833 136.082 35.7333 136.082 37.6C136.082 39.4667 136.416 41.0333 137.082 42.3C137.749 43.5333 138.616 44.4667 139.682 45.1C140.749 45.7333 141.916 46.05 143.182 46.05ZM173.114 50.6C170.747 50.6 168.614 50.0667 166.714 49C164.847 47.9 163.364 46.3833 162.264 44.45C161.164 42.4833 160.614 40.2 160.614 37.6C160.614 35 161.164 32.7333 162.264 30.8C163.397 28.8333 164.914 27.3167 166.814 26.25C168.714 25.15 170.831 24.6 173.164 24.6C175.531 24.6 177.647 25.15 179.514 26.25C181.414 27.3167 182.914 28.8333 184.014 30.8C185.147 32.7333 185.714 35 185.714 37.6C185.714 40.2 185.147 42.4833 184.014 44.45C182.914 46.3833 181.414 47.9 179.514 49C177.614 50.0667 175.481 50.6 173.114 50.6ZM173.114 46.05C174.381 46.05 175.547 45.7333 176.614 45.1C177.714 44.4667 178.597 43.5333 179.264 42.3C179.931 41.0333 180.264 39.4667 180.264 37.6C180.264 35.7333 179.931 34.1833 179.264 32.95C178.631 31.6833 177.764 30.7333 176.664 30.1C175.597 29.4667 174.431 29.15 173.164 29.15C171.897 29.15 170.714 29.4667 169.614 30.1C168.547 30.7333 167.681 31.6833 167.014 32.95C166.347 34.1833 166.014 35.7333 166.014 37.6C166.014 39.4667 166.347 41.0333 167.014 42.3C167.681 43.5333 168.547 44.4667 169.614 45.1C170.681 45.7333 171.847 46.05 173.114 46.05ZM200.277 42.4C198.977 42.4 197.777 42.25 196.677 41.95L194.527 44.05C194.894 44.2833 195.344 44.4833 195.877 44.65C196.411 44.8167 197.161 44.9667 198.127 45.1C199.094 45.2333 200.411 45.3667 202.077 45.5C205.377 45.8 207.761 46.6 209.227 47.9C210.694 49.1667 211.427 50.8667 211.427 53C211.427 54.4667 211.027 55.85 210.227 57.15C209.461 58.4833 208.244 59.55 206.577 60.35C204.944 61.1833 202.844 61.6 200.277 61.6C196.811 61.6 193.994 60.9333 191.827 59.6C189.694 58.3 188.627 56.3167 188.627 53.65C188.627 52.6167 188.894 51.5833 189.427 50.55C189.994 49.55 190.877 48.6 192.077 47.7C191.377 47.4 190.761 47.0833 190.227 46.75C189.727 46.3833 189.277 46.0167 188.877 45.65V44.45L193.177 40.05C191.244 38.3833 190.277 36.2 190.277 33.5C190.277 31.8667 190.661 30.3833 191.427 29.05C192.227 27.6833 193.377 26.6 194.877 25.8C196.377 25 198.177 24.6 200.277 24.6C201.677 24.6 202.977 24.8 204.177 25.2H213.427V28.7L209.027 28.95C209.827 30.3167 210.227 31.8333 210.227 33.5C210.227 35.1667 209.827 36.6667 209.027 38C208.261 39.3333 207.127 40.4 205.627 41.2C204.161 42 202.377 42.4 200.277 42.4ZM200.277 38.25C201.811 38.25 203.044 37.85 203.977 37.05C204.944 36.2167 205.427 35.05 205.427 33.55C205.427 32.0167 204.944 30.85 203.977 30.05C203.044 29.25 201.811 28.85 200.277 28.85C198.711 28.85 197.444 29.25 196.477 30.05C195.544 30.85 195.077 32.0167 195.077 33.55C195.077 35.05 195.544 36.2167 196.477 37.05C197.444 37.85 198.711 38.25 200.277 38.25ZM193.627 53.15C193.627 54.5833 194.261 55.65 195.527 56.35C196.794 57.0833 198.377 57.45 200.277 57.45C202.111 57.45 203.594 57.05 204.727 56.25C205.861 55.4833 206.427 54.45 206.427 53.15C206.427 52.1833 206.044 51.35 205.277 50.65C204.511 49.9833 203.061 49.5667 200.927 49.4C199.327 49.3 197.911 49.15 196.677 48.95C195.511 49.5833 194.711 50.2667 194.277 51C193.844 51.7333 193.627 52.45 193.627 53.15ZM218.155 50V14H223.455V50H218.155ZM241.766 50.6C239.333 50.6 237.166 50.0667 235.266 49C233.4 47.9 231.933 46.3833 230.866 44.45C229.8 42.5167 229.266 40.2667 229.266 37.7C229.266 35.1 229.783 32.8167 230.816 30.85C231.883 28.8833 233.35 27.35 235.216 26.25C237.116 25.15 239.316 24.6 241.816 24.6C244.25 24.6 246.366 25.15 248.166 26.25C249.966 27.3167 251.366 28.75 252.366 30.55C253.366 32.35 253.866 34.3333 253.866 36.5C253.866 36.8333 253.85 37.2 253.816 37.6C253.816 37.9667 253.8 38.3833 253.766 38.85H234.466C234.633 41.25 235.416 43.0833 236.816 44.35C238.25 45.5833 239.9 46.2 241.766 46.2C243.266 46.2 244.516 45.8667 245.516 45.2C246.55 44.5 247.316 43.5667 247.816 42.4H253.116C252.45 44.7333 251.116 46.6833 249.116 48.25C247.15 49.8167 244.7 50.6 241.766 50.6ZM241.766 28.95C240 28.95 238.433 29.4833 237.066 30.55C235.7 31.5833 234.866 33.15 234.566 35.25H248.566C248.466 33.3167 247.783 31.7833 246.516 30.65C245.25 29.5167 243.666 28.95 241.766 28.95ZM287.763 50.6C284.297 50.6 281.297 49.85 278.763 48.35C276.263 46.8167 274.33 44.7 272.963 42C271.597 39.2667 270.913 36.1167 270.913 32.55C270.913 28.95 271.597 25.8 272.963 23.1C274.33 20.3667 276.263 18.2333 278.763 16.7C281.297 15.1667 284.297 14.4 287.763 14.4C291.863 14.4 295.213 15.4 297.813 17.4C300.413 19.4 302.063 22.2 302.763 25.8H296.863C296.397 23.7667 295.397 22.15 293.863 20.95C292.33 19.75 290.28 19.15 287.713 19.15C284.213 19.15 281.447 20.35 279.413 22.75C277.38 25.1167 276.363 28.3833 276.363 32.55C276.363 36.6833 277.38 39.9333 279.413 42.3C281.447 44.6667 284.213 45.85 287.713 45.85C290.28 45.85 292.33 45.2833 293.863 44.15C295.397 43.0167 296.397 41.4667 296.863 39.5H302.763C302.063 42.9667 300.413 45.6833 297.813 47.65C295.213 49.6167 291.863 50.6 287.763 50.6ZM316.789 50.6C314.689 50.6 312.956 50.25 311.589 49.55C310.222 48.85 309.206 47.9333 308.539 46.8C307.872 45.6333 307.539 44.3667 307.539 43C307.539 40.6 308.472 38.7 310.339 37.3C312.206 35.9 314.872 35.2 318.339 35.2H324.839V34.75C324.839 32.8167 324.306 31.3667 323.239 30.4C322.206 29.4333 320.856 28.95 319.189 28.95C317.722 28.95 316.439 29.3167 315.339 30.05C314.272 30.75 313.622 31.8 313.389 33.2H308.089C308.256 31.4 308.856 29.8667 309.889 28.6C310.956 27.3 312.289 26.3167 313.889 25.65C315.522 24.95 317.306 24.6 319.239 24.6C322.706 24.6 325.389 25.5167 327.289 27.35C329.189 29.15 330.139 31.6167 330.139 34.75V50H325.539L325.089 45.75C324.389 47.1167 323.372 48.2667 322.039 49.2C320.706 50.1333 318.956 50.6 316.789 50.6ZM317.839 46.3C319.272 46.3 320.472 45.9667 321.439 45.3C322.439 44.6 323.206 43.6833 323.739 42.55C324.306 41.4167 324.656 40.1667 324.789 38.8H318.889C316.789 38.8 315.289 39.1667 314.389 39.9C313.522 40.6333 313.089 41.55 313.089 42.65C313.089 43.7833 313.506 44.6833 314.339 45.35C315.206 45.9833 316.372 46.3 317.839 46.3ZM336.319 50V14H341.619V50H336.319ZM359.93 50.6C357.497 50.6 355.33 50.0667 353.43 49C351.564 47.9 350.097 46.3833 349.03 44.45C347.964 42.5167 347.43 40.2667 347.43 37.7C347.43 35.1 347.947 32.8167 348.98 30.85C350.047 28.8833 351.514 27.35 353.38 26.25C355.28 25.15 357.48 24.6 359.98 24.6C362.414 24.6 364.53 25.15 366.33 26.25C368.13 27.3167 369.53 28.75 370.53 30.55C371.53 32.35 372.03 34.3333 372.03 36.5C372.03 36.8333 372.014 37.2 371.98 37.6C371.98 37.9667 371.964 38.3833 371.93 38.85H352.63C352.797 41.25 353.58 43.0833 354.98 44.35C356.414 45.5833 358.064 46.2 359.93 46.2C361.43 46.2 362.68 45.8667 363.68 45.2C364.714 44.5 365.48 43.5667 365.98 42.4H371.28C370.614 44.7333 369.28 46.6833 367.28 48.25C365.314 49.8167 362.864 50.6 359.93 50.6ZM359.93 28.95C358.164 28.95 356.597 29.4833 355.23 30.55C353.864 31.5833 353.03 33.15 352.73 35.25H366.73C366.63 33.3167 365.947 31.7833 364.68 30.65C363.414 29.5167 361.83 28.95 359.93 28.95ZM377.53 50V25.2H382.23L382.63 29.55C383.396 28.0167 384.513 26.8167 385.98 25.95C387.48 25.05 389.196 24.6 391.13 24.6C394.13 24.6 396.48 25.5333 398.18 27.4C399.913 29.2667 400.78 32.05 400.78 35.75V50H395.53V36.3C395.53 31.5 393.563 29.1 389.63 29.1C387.663 29.1 386.03 29.8 384.73 31.2C383.463 32.6 382.83 34.6 382.83 37.2V50H377.53ZM418.322 50.6C415.922 50.6 413.805 50.0333 411.972 48.9C410.139 47.7667 408.705 46.2167 407.672 44.25C406.639 42.2833 406.122 40.05 406.122 37.55C406.122 35.05 406.639 32.8333 407.672 30.9C408.705 28.9333 410.139 27.4 411.972 26.3C413.839 25.1667 415.972 24.6 418.372 24.6C420.339 24.6 422.055 24.9833 423.522 25.75C425.022 26.5167 426.189 27.6 427.022 29V14H432.322V50H427.572L427.022 46.15C426.222 47.3167 425.122 48.35 423.722 49.25C422.322 50.15 420.522 50.6 418.322 50.6ZM419.272 46C421.539 46 423.389 45.2167 424.822 43.65C426.289 42.0833 427.022 40.0667 427.022 37.6C427.022 35.1 426.289 33.0833 424.822 31.55C423.389 29.9833 421.539 29.2 419.272 29.2C417.005 29.2 415.139 29.9833 413.672 31.55C412.205 33.0833 411.472 35.1 411.472 37.6C411.472 39.2333 411.805 40.6833 412.472 41.95C413.139 43.2167 414.055 44.2167 415.222 44.95C416.422 45.65 417.772 46 419.272 46ZM447.404 50.6C445.304 50.6 443.571 50.25 442.204 49.55C440.838 48.85 439.821 47.9333 439.154 46.8C438.488 45.6333 438.154 44.3667 438.154 43C438.154 40.6 439.088 38.7 440.954 37.3C442.821 35.9 445.488 35.2 448.954 35.2H455.454V34.75C455.454 32.8167 454.921 31.3667 453.854 30.4C452.821 29.4333 451.471 28.95 449.804 28.95C448.338 28.95 447.054 29.3167 445.954 30.05C444.888 30.75 444.238 31.8 444.004 33.2H438.704C438.871 31.4 439.471 29.8667 440.504 28.6C441.571 27.3 442.904 26.3167 444.504 25.65C446.138 24.95 447.921 24.6 449.854 24.6C453.321 24.6 456.004 25.5167 457.904 27.35C459.804 29.15 460.754 31.6167 460.754 34.75V50H456.154L455.704 45.75C455.004 47.1167 453.988 48.2667 452.654 49.2C451.321 50.1333 449.571 50.6 447.404 50.6ZM448.454 46.3C449.888 46.3 451.088 45.9667 452.054 45.3C453.054 44.6 453.821 43.6833 454.354 42.55C454.921 41.4167 455.271 40.1667 455.404 38.8H449.504C447.404 38.8 445.904 39.1667 445.004 39.9C444.138 40.6333 443.704 41.55 443.704 42.65C443.704 43.7833 444.121 44.6833 444.954 45.35C445.821 45.9833 446.988 46.3 448.454 46.3ZM466.934 50V25.2H471.684L472.134 29.9C473.001 28.2667 474.201 26.9833 475.734 26.05C477.301 25.0833 479.184 24.6 481.384 24.6V30.15H479.934C478.467 30.15 477.151 30.4 475.984 30.9C474.851 31.3667 473.934 32.1833 473.234 33.35C472.567 34.4833 472.234 36.0667 472.234 38.1V50H466.934Z" fill="white"/>
</svg>
