<svg width="387" height="65" viewBox="0 0 387 65" fill="none" xmlns="http://www.w3.org/2000/svg">
<path d="M104.75 50.6C101.45 50.6 98.5667 49.85 96.1 48.35C93.6333 46.85 91.7167 44.75 90.35 42.05C88.9833 39.35 88.3 36.2 88.3 32.6C88.3 29.0333 89 25.8833 90.4 23.15C91.8 20.4167 93.7833 18.2833 96.35 16.75C98.95 15.1833 102.017 14.4 105.55 14.4C109.55 14.4 112.883 15.3667 115.55 17.3C118.217 19.2333 119.95 21.9 120.75 25.3H114.75C114.217 23.4333 113.167 21.9667 111.6 20.9C110.033 19.8333 108.017 19.3 105.55 19.3C101.883 19.3 99 20.4833 96.9 22.85C94.8 25.2167 93.75 28.4833 93.75 32.65C93.75 36.8167 94.7833 40.0667 96.85 42.4C98.9167 44.7333 101.667 45.9 105.1 45.9C108.567 45.9 111.167 44.9167 112.9 42.95C114.667 40.9833 115.7 38.3667 116 35.1H106.5V31H121.35V50H116.5L116.05 44.85C114.883 46.6833 113.417 48.1 111.65 49.1C109.883 50.1 107.583 50.6 104.75 50.6ZM139.182 50.6C136.816 50.6 134.682 50.0667 132.782 49C130.916 47.9 129.432 46.3833 128.332 44.45C127.232 42.4833 126.682 40.2 126.682 37.6C126.682 35 127.232 32.7333 128.332 30.8C129.466 28.8333 130.982 27.3167 132.882 26.25C134.782 25.15 136.899 24.6 139.232 24.6C141.599 24.6 143.716 25.15 145.582 26.25C147.482 27.3167 148.982 28.8333 150.082 30.8C151.216 32.7333 151.782 35 151.782 37.6C151.782 40.2 151.216 42.4833 150.082 44.45C148.982 46.3833 147.482 47.9 145.582 49C143.682 50.0667 141.549 50.6 139.182 50.6ZM139.182 46.05C140.449 46.05 141.616 45.7333 142.682 45.1C143.782 44.4667 144.666 43.5333 145.332 42.3C145.999 41.0333 146.332 39.4667 146.332 37.6C146.332 35.7333 145.999 34.1833 145.332 32.95C144.699 31.6833 143.832 30.7333 142.732 30.1C141.666 29.4667 140.499 29.15 139.232 29.15C137.966 29.15 136.782 29.4667 135.682 30.1C134.616 30.7333 133.749 31.6833 133.082 32.95C132.416 34.1833 132.082 35.7333 132.082 37.6C132.082 39.4667 132.416 41.0333 133.082 42.3C133.749 43.5333 134.616 44.4667 135.682 45.1C136.749 45.7333 137.916 46.05 139.182 46.05ZM169.114 50.6C166.747 50.6 164.614 50.0667 162.714 49C160.847 47.9 159.364 46.3833 158.264 44.45C157.164 42.4833 156.614 40.2 156.614 37.6C156.614 35 157.164 32.7333 158.264 30.8C159.397 28.8333 160.914 27.3167 162.814 26.25C164.714 25.15 166.831 24.6 169.164 24.6C171.531 24.6 173.647 25.15 175.514 26.25C177.414 27.3167 178.914 28.8333 180.014 30.8C181.147 32.7333 181.714 35 181.714 37.6C181.714 40.2 181.147 42.4833 180.014 44.45C178.914 46.3833 177.414 47.9 175.514 49C173.614 50.0667 171.481 50.6 169.114 50.6ZM169.114 46.05C170.381 46.05 171.547 45.7333 172.614 45.1C173.714 44.4667 174.597 43.5333 175.264 42.3C175.931 41.0333 176.264 39.4667 176.264 37.6C176.264 35.7333 175.931 34.1833 175.264 32.95C174.631 31.6833 173.764 30.7333 172.664 30.1C171.597 29.4667 170.431 29.15 169.164 29.15C167.897 29.15 166.714 29.4667 165.614 30.1C164.547 30.7333 163.681 31.6833 163.014 32.95C162.347 34.1833 162.014 35.7333 162.014 37.6C162.014 39.4667 162.347 41.0333 163.014 42.3C163.681 43.5333 164.547 44.4667 165.614 45.1C166.681 45.7333 167.847 46.05 169.114 46.05ZM196.277 42.4C194.977 42.4 193.777 42.25 192.677 41.95L190.527 44.05C190.894 44.2833 191.344 44.4833 191.877 44.65C192.411 44.8167 193.161 44.9667 194.127 45.1C195.094 45.2333 196.411 45.3667 198.077 45.5C201.377 45.8 203.761 46.6 205.227 47.9C206.694 49.1667 207.427 50.8667 207.427 53C207.427 54.4667 207.027 55.85 206.227 57.15C205.461 58.4833 204.244 59.55 202.577 60.35C200.944 61.1833 198.844 61.6 196.277 61.6C192.811 61.6 189.994 60.9333 187.827 59.6C185.694 58.3 184.627 56.3167 184.627 53.65C184.627 52.6167 184.894 51.5833 185.427 50.55C185.994 49.55 186.877 48.6 188.077 47.7C187.377 47.4 186.761 47.0833 186.227 46.75C185.727 46.3833 185.277 46.0167 184.877 45.65V44.45L189.177 40.05C187.244 38.3833 186.277 36.2 186.277 33.5C186.277 31.8667 186.661 30.3833 187.427 29.05C188.227 27.6833 189.377 26.6 190.877 25.8C192.377 25 194.177 24.6 196.277 24.6C197.677 24.6 198.977 24.8 200.177 25.2H209.427V28.7L205.027 28.95C205.827 30.3167 206.227 31.8333 206.227 33.5C206.227 35.1667 205.827 36.6667 205.027 38C204.261 39.3333 203.127 40.4 201.627 41.2C200.161 42 198.377 42.4 196.277 42.4ZM196.277 38.25C197.811 38.25 199.044 37.85 199.977 37.05C200.944 36.2167 201.427 35.05 201.427 33.55C201.427 32.0167 200.944 30.85 199.977 30.05C199.044 29.25 197.811 28.85 196.277 28.85C194.711 28.85 193.444 29.25 192.477 30.05C191.544 30.85 191.077 32.0167 191.077 33.55C191.077 35.05 191.544 36.2167 192.477 37.05C193.444 37.85 194.711 38.25 196.277 38.25ZM189.627 53.15C189.627 54.5833 190.261 55.65 191.527 56.35C192.794 57.0833 194.377 57.45 196.277 57.45C198.111 57.45 199.594 57.05 200.727 56.25C201.861 55.4833 202.427 54.45 202.427 53.15C202.427 52.1833 202.044 51.35 201.277 50.65C200.511 49.9833 199.061 49.5667 196.927 49.4C195.327 49.3 193.911 49.15 192.677 48.95C191.511 49.5833 190.711 50.2667 190.277 51C189.844 51.7333 189.627 52.45 189.627 53.15ZM214.155 50V14H219.455V50H214.155ZM237.766 50.6C235.333 50.6 233.166 50.0667 231.266 49C229.4 47.9 227.933 46.3833 226.866 44.45C225.8 42.5167 225.266 40.2667 225.266 37.7C225.266 35.1 225.783 32.8167 226.816 30.85C227.883 28.8833 229.35 27.35 231.216 26.25C233.116 25.15 235.316 24.6 237.816 24.6C240.25 24.6 242.366 25.15 244.166 26.25C245.966 27.3167 247.366 28.75 248.366 30.55C249.366 32.35 249.866 34.3333 249.866 36.5C249.866 36.8333 249.85 37.2 249.816 37.6C249.816 37.9667 249.8 38.3833 249.766 38.85H230.466C230.633 41.25 231.416 43.0833 232.816 44.35C234.25 45.5833 235.9 46.2 237.766 46.2C239.266 46.2 240.516 45.8667 241.516 45.2C242.55 44.5 243.316 43.5667 243.816 42.4H249.116C248.45 44.7333 247.116 46.6833 245.116 48.25C243.15 49.8167 240.7 50.6 237.766 50.6ZM237.766 28.95C236 28.95 234.433 29.4833 233.066 30.55C231.7 31.5833 230.866 33.15 230.566 35.25H244.566C244.466 33.3167 243.783 31.7833 242.516 30.65C241.25 29.5167 239.666 28.95 237.766 28.95ZM268.163 50V15H279.513C283.613 15 286.98 15.7167 289.613 17.15C292.28 18.5833 294.247 20.6167 295.513 23.25C296.813 25.85 297.463 28.95 297.463 32.55C297.463 36.1167 296.813 39.2167 295.513 41.85C294.247 44.45 292.28 46.4667 289.613 47.9C286.98 49.3 283.613 50 279.513 50H268.163ZM273.463 45.5H279.313C282.48 45.5 284.98 44.9833 286.813 43.95C288.68 42.9167 290.013 41.4333 290.813 39.5C291.647 37.5667 292.063 35.25 292.063 32.55C292.063 29.85 291.647 27.5167 290.813 25.55C290.013 23.5833 288.68 22.0833 286.813 21.05C284.98 19.9833 282.48 19.45 279.313 19.45H273.463V45.5ZM303.12 50V25.2H307.87L308.32 29.9C309.186 28.2667 310.386 26.9833 311.92 26.05C313.486 25.0833 315.37 24.6 317.57 24.6V30.15H316.12C314.653 30.15 313.336 30.4 312.17 30.9C311.036 31.3667 310.12 32.1833 309.42 33.35C308.753 34.4833 308.42 36.0667 308.42 38.1V50H303.12ZM325.114 20.5C324.114 20.5 323.28 20.2 322.614 19.6C321.98 18.9667 321.664 18.1833 321.664 17.25C321.664 16.3167 321.98 15.55 322.614 14.95C323.28 14.3167 324.114 14 325.114 14C326.114 14 326.93 14.3167 327.564 14.95C328.23 15.55 328.564 16.3167 328.564 17.25C328.564 18.1833 328.23 18.9667 327.564 19.6C326.93 20.2 326.114 20.5 325.114 20.5ZM322.464 50V25.2H327.764V50H322.464ZM341.71 50L332.41 25.2H337.96L344.86 44.95L351.76 25.2H357.26L348.01 50H341.71ZM371.946 50.6C369.513 50.6 367.346 50.0667 365.446 49C363.579 47.9 362.113 46.3833 361.046 44.45C359.979 42.5167 359.446 40.2667 359.446 37.7C359.446 35.1 359.963 32.8167 360.996 30.85C362.063 28.8833 363.529 27.35 365.396 26.25C367.296 25.15 369.496 24.6 371.996 24.6C374.429 24.6 376.546 25.15 378.346 26.25C380.146 27.3167 381.546 28.75 382.546 30.55C383.546 32.35 384.046 34.3333 384.046 36.5C384.046 36.8333 384.029 37.2 383.996 37.6C383.996 37.9667 383.979 38.3833 383.946 38.85H364.646C364.813 41.25 365.596 43.0833 366.996 44.35C368.429 45.5833 370.079 46.2 371.946 46.2C373.446 46.2 374.696 45.8667 375.696 45.2C376.729 44.5 377.496 43.5667 377.996 42.4H383.296C382.629 44.7333 381.296 46.6833 379.296 48.25C377.329 49.8167 374.879 50.6 371.946 50.6ZM371.946 28.95C370.179 28.95 368.613 29.4833 367.246 30.55C365.879 31.5833 365.046 33.15 364.746 35.25H378.746C378.646 33.3167 377.963 31.7833 376.696 30.65C375.429 29.5167 373.846 28.95 371.946 28.95Z" fill="white"/>
<path d="M17.325 10.9196L27.4808 28.5071L10.1558 58.5283L0 40.9438L17.325 10.9196ZM23.6717 40.9438H58.3333L48.1775 58.5283H13.5187L23.6717 40.9438ZM36.3387 38.0271L19.0108 8H39.3225L56.6475 38.0271H36.3387Z" fill="white"/>
</svg>
