<svg width="542" height="542" viewBox="0 0 542 542" fill="none" xmlns="http://www.w3.org/2000/svg">
<circle cx="270.5" cy="270.5" r="128" stroke="#606060"/>
<circle cx="270.5" cy="270.5" r="201" stroke="#606060"/>
<circle cx="271" cy="271" r="270.5" stroke="#606060"/>
<circle cx="270.5" cy="270.5" r="70.5" fill="#262626"/>
<path d="M247.357 233H241.99C238.451 233 236.662 237.301 239.174 239.813L260.982 261.621C267.224 267.863 277.31 267.863 283.551 261.621L305.359 239.813C307.871 237.301 306.083 233 302.543 233H297.177C294.018 233 290.973 234.256 288.727 236.501L275.102 250.127C273.542 251.687 271.03 251.687 269.469 250.127L255.844 236.501C253.56 234.256 250.516 233 247.357 233Z" fill="#F1F1F1"/>
<path d="M247.357 309H241.99C238.451 309 236.662 304.7 239.174 302.188L260.982 280.38C267.224 274.138 277.31 274.138 283.551 280.38L305.359 302.188C307.871 304.7 306.083 309 302.543 309H297.177C294.018 309 290.973 307.744 288.727 305.499L275.102 291.873C273.542 290.313 271.03 290.313 269.469 291.873L255.844 305.499C253.56 307.744 250.516 309 247.357 309Z" fill="#F1F1F1"/>
<path d="M288 37H254C245.716 37 239 43.7157 239 52V86C239 94.2843 245.716 101 254 101H288C296.284 101 303 94.2843 303 86V52C303 43.7157 296.284 37 288 37Z" fill="#262626"/>
<path d="M289.743 51.5176C286.202 49.8527 282.455 48.6698 278.603 48C278.123 48.8717 277.562 50.0442 277.175 50.9769C273.022 50.3494 268.906 50.3494 264.829 50.9769C264.442 50.0444 263.869 48.8717 263.385 48C259.528 48.6701 255.778 49.856 252.235 51.5263C245.185 62.2312 243.274 72.6699 244.229 82.9608C248.906 86.4695 253.437 88.601 257.893 89.9958C259 88.4658 259.979 86.846 260.819 85.1531C259.219 84.5412 257.677 83.7871 256.211 82.8998C256.597 82.6124 256.974 82.3129 257.341 82.0018C266.226 86.1774 275.88 86.1774 284.659 82.0018C285.028 82.3109 285.405 82.6103 285.789 82.8998C284.32 83.7894 282.775 84.5451 281.172 85.1576C282.017 86.8573 282.994 88.4787 284.099 90C288.558 88.6054 293.094 86.4739 297.77 82.9608C298.892 71.0311 295.855 60.6882 289.743 51.5176ZM262.03 76.6321C259.362 76.6321 257.175 74.1301 257.175 71.0835C257.175 68.0368 259.316 65.5306 262.03 65.5306C264.744 65.5306 266.931 68.0324 266.884 71.0835C266.889 74.1301 264.744 76.6321 262.03 76.6321ZM279.97 76.6321C277.303 76.6321 275.116 74.1301 275.116 71.0835C275.116 68.0368 277.256 65.5306 279.97 65.5306C282.684 65.5306 284.871 68.0324 284.825 71.0835C284.825 74.1301 282.684 76.6321 279.97 76.6321Z" fill="#5865F2"/>
<path d="M472 152H438C429.716 152 423 158.716 423 167V201C423 209.284 429.716 216 438 216H472C480.284 216 487 209.284 487 201V167C487 158.716 480.284 152 472 152Z" fill="#262626"/>
<path d="M440.873 189.7C440.873 192.418 438.657 194.638 435.938 194.638C433.219 194.638 431 192.418 431 189.7C431 186.982 433.22 184.761 435.938 184.761H440.874L440.873 189.7ZM443.361 189.7C443.361 186.982 445.582 184.761 448.3 184.761C451.018 184.761 453.238 186.981 453.238 189.7V202.062C453.238 204.78 451.018 207 448.3 207C445.582 207 443.361 204.78 443.361 202.062V189.7Z" fill="#DE1C59"/>
<path d="M448.3 169.873C445.582 169.873 443.361 167.657 443.361 164.938C443.361 162.219 445.582 160 448.3 160C451.018 160 453.238 162.22 453.238 164.938V169.874L448.3 169.873ZM448.3 172.361C451.018 172.361 453.238 174.582 453.238 177.3C453.238 180.018 451.018 182.238 448.3 182.238H435.938C433.22 182.238 431 180.018 431 177.3C431 174.582 433.22 172.361 435.938 172.361H448.3Z" fill="#35C5F0"/>
<path d="M468.126 177.3C468.126 174.582 470.343 172.361 473.061 172.361C475.78 172.361 478 174.582 478 177.3C478 180.018 475.78 182.238 473.061 182.238H468.126V177.3ZM465.638 177.3C465.638 180.018 463.418 182.238 460.7 182.238C457.981 182.238 455.761 180.018 455.761 177.3V164.938C455.761 162.22 457.981 160 460.7 160C463.418 160 465.638 162.22 465.638 164.938V177.3Z" fill="#2EB57D"/>
<path d="M460.7 197.126C463.418 197.126 465.638 199.343 465.638 202.062C465.638 204.78 463.418 207 460.7 207C457.981 207 455.761 204.78 455.761 202.062V197.126H460.7ZM460.7 194.638C457.981 194.638 455.761 192.418 455.761 189.7C455.761 186.982 457.981 184.761 460.7 184.761H473.061C475.78 184.761 478 186.981 478 189.7C478 192.418 475.78 194.638 473.061 194.638H460.7Z" fill="#EBB02E"/>
<path d="M289 431H255C246.716 431 240 437.716 240 446V480C240 488.284 246.716 495 255 495H289C297.284 495 304 488.284 304 480V446C304 437.716 297.284 431 289 431Z" fill="#262626"/>
<path d="M249.892 479.424L252.163 483.346C252.635 484.172 253.313 484.82 254.109 485.292C256.39 482.397 257.977 480.176 258.871 478.628C259.779 477.057 260.894 474.6 262.218 471.256C258.651 470.787 255.948 470.552 254.109 470.552C252.344 470.552 249.641 470.787 246 471.256C246 472.17 246.236 473.084 246.708 473.91L249.892 479.424Z" fill="#0066DA"/>
<path d="M289.376 485.292C290.172 484.82 290.85 484.172 291.322 483.346L292.266 481.724L296.777 473.91C297.24 473.102 297.484 472.188 297.485 471.256C293.823 470.787 291.125 470.552 289.391 470.552C287.527 470.552 284.829 470.787 281.296 471.256C282.604 474.618 283.705 477.076 284.599 478.628C285.501 480.195 287.093 482.416 289.376 485.292Z" fill="#EA4335"/>
<path d="M271.742 454.744C274.381 451.557 276.199 449.1 277.198 447.372C278.001 445.981 278.886 443.759 279.851 440.708C279.055 440.236 278.141 440 277.198 440H266.287C265.344 440 264.43 440.265 263.634 440.708C264.862 444.207 265.904 446.698 266.76 448.18C267.706 449.817 269.367 452.005 271.742 454.744Z" fill="#00832D"/>
<path d="M281.267 471.256H262.218L254.109 485.292C254.905 485.764 255.819 486 256.763 486H286.722C287.665 486 288.58 485.734 289.376 485.292L281.267 471.256Z" fill="#2684FC"/>
<path d="M271.742 454.744L263.633 440.708C262.837 441.18 262.159 441.828 261.687 442.654L246.708 468.603C246.245 469.41 246.001 470.325 246 471.256H262.218L271.742 454.744Z" fill="#00AC47"/>
<path d="M289.287 455.628L281.797 442.654C281.325 441.828 280.647 441.179 279.851 440.708L271.742 454.743L281.266 471.256H297.455C297.455 470.342 297.219 469.428 296.747 468.603L289.287 455.628Z" fill="#FFBA00"/>
<path d="M113 152H79C70.7157 152 64 158.716 64 167V201C64 209.284 70.7157 216 79 216H113C121.284 216 128 209.284 128 201V167C128 158.716 121.284 152 113 152Z" fill="#262626"/>
<path d="M107.868 173.132H83.1313V197.868H107.868V173.132Z" fill="white"/>
<path d="M107.868 209L119 197.868L113.434 196.919L107.868 197.868L106.852 202.959L107.868 209Z" fill="#EA4335"/>
<path d="M72 197.868V205.289C72 207.34 73.6604 209 75.7104 209H83.1316L84.2745 203.434L83.1316 197.868L77.067 196.919L72 197.868Z" fill="#188038"/>
<path d="M119 173.132V165.71C119 163.66 117.339 162 115.289 162H107.868C107.191 164.761 106.852 166.792 106.852 168.095C106.852 169.397 107.191 171.076 107.868 173.132C110.33 173.837 112.185 174.189 113.434 174.189C114.683 174.189 116.538 173.837 119 173.132Z" fill="#1967D2"/>
<path d="M119 173.132H107.869V197.868H119V173.132Z" fill="#FBBC04"/>
<path d="M107.868 197.868H83.1313V209H107.868V197.868Z" fill="#34A853"/>
<path d="M107.868 162H75.7106C73.6604 162 72 163.66 72 165.71V197.868H83.1316V173.132H107.868V162Z" fill="#4285F4"/>
<path d="M88.2061 192.321C87.2816 191.697 86.6414 190.785 86.292 189.578L88.438 188.694C88.6326 189.436 88.9728 190.012 89.4584 190.42C89.9407 190.828 90.5282 191.029 91.2147 191.029C91.9166 191.029 92.5195 190.815 93.0235 190.389C93.5276 189.962 93.7811 189.418 93.7811 188.759C93.7811 188.085 93.5151 187.535 92.9834 187.108C92.4516 186.681 91.7836 186.468 90.9859 186.468H89.7459V184.344H90.8591C91.5455 184.344 92.1237 184.158 92.5937 183.787C93.0637 183.416 93.2987 182.909 93.2987 182.263C93.2987 181.688 93.0884 181.23 92.668 180.887C92.2476 180.543 91.7155 180.37 91.0693 180.37C90.4385 180.37 89.9376 180.537 89.5666 180.874C89.1957 181.212 88.9169 181.639 88.7564 182.114L86.6322 181.23C86.9135 180.432 87.4299 179.727 88.1874 179.118C88.9451 178.509 89.9128 178.203 91.0878 178.203C91.9568 178.203 92.7391 178.37 93.4318 178.707C94.1243 179.044 94.6685 179.511 95.0612 180.104C95.454 180.701 95.6487 181.369 95.6487 182.111C95.6487 182.869 95.4663 183.509 95.1015 184.034C94.7366 184.56 94.2882 184.962 93.7564 185.243V185.37C94.4431 185.653 95.0397 186.118 95.4818 186.715C95.9301 187.318 96.1559 188.039 96.1559 188.88C96.1559 189.721 95.9424 190.472 95.5157 191.131C95.0891 191.789 94.4986 192.309 93.7501 192.686C92.9989 193.063 92.1547 193.255 91.2178 193.255C90.1324 193.258 89.1307 192.946 88.2061 192.321ZM101.387 181.672L99.0314 183.376L97.8532 181.589L102.08 178.54H103.7V192.921H101.387V181.672Z" fill="#4285F4"/>
<path d="M470 332H436C427.716 332 421 338.716 421 347V381C421 389.284 427.716 396 436 396H470C478.284 396 485 389.284 485 381V347C485 338.716 478.284 332 470 332Z" fill="#262626"/>
<path d="M433.828 343.027L459.834 341.107C463.029 340.833 463.849 341.018 465.858 342.478L474.16 348.326C475.529 349.332 475.985 349.606 475.985 350.701V382.775C475.985 384.785 475.255 385.974 472.699 386.156L442.499 387.984C440.582 388.075 439.668 387.801 438.664 386.521L432.551 378.572C431.454 377.109 431 376.013 431 374.733V346.223C431 344.58 431.73 343.209 433.828 343.027Z" fill="white"/>
<path d="M459.834 341.107L433.828 343.027C431.73 343.209 431 344.58 431 346.223V374.733C431 376.013 431.454 377.109 432.551 378.572L438.664 386.521C439.668 387.801 440.582 388.075 442.499 387.984L472.699 386.156C475.253 385.974 475.985 384.785 475.985 382.775V350.701C475.985 349.662 475.574 349.363 474.366 348.476L474.158 348.326L465.858 342.478C463.849 341.018 463.029 340.833 459.834 341.107ZM443.182 350.176C440.716 350.342 440.157 350.38 438.757 349.241L435.196 346.408C434.834 346.042 435.015 345.584 435.927 345.493L460.928 343.667C463.027 343.483 464.121 344.215 464.942 344.854L469.229 347.961C469.413 348.053 469.869 348.6 469.32 348.6L443.502 350.154L443.182 350.176ZM440.307 382.501V355.272C440.307 354.083 440.672 353.535 441.766 353.443L471.42 351.707C472.425 351.616 472.88 352.255 472.88 353.443V380.489C472.88 381.678 472.696 382.684 471.055 382.775L442.678 384.42C441.036 384.511 440.307 383.964 440.307 382.501ZM468.319 356.732C468.501 357.555 468.319 358.377 467.497 358.471L466.129 358.742V378.846C464.942 379.485 463.848 379.85 462.934 379.85C461.475 379.85 461.109 379.392 460.016 378.023L451.072 363.952V377.566L453.901 378.206C453.901 378.206 453.901 379.852 451.619 379.852L445.325 380.217C445.142 379.85 445.325 378.937 445.963 378.755L447.606 378.299V360.298L445.326 360.113C445.142 359.291 445.598 358.103 446.876 358.011L453.629 357.557L462.935 371.81V359.2L460.563 358.927C460.379 357.92 461.109 357.189 462.021 357.099L468.319 356.732Z" fill="black"/>
<path d="M113 332H79C70.7157 332 64 338.716 64 347V381C64 389.284 70.7157 396 79 396H113C121.284 396 128 389.284 128 381V347C128 338.716 121.284 332 113 332Z" fill="#262626"/>
<path d="M74.409 382.76H82.3635V363.442L71 354.919V379.351C71 381.237 72.5285 382.76 74.409 382.76Z" fill="#4285F4"/>
<path d="M109.636 382.76H117.591C119.477 382.76 121 381.231 121 379.351V354.919L109.636 363.442" fill="#34A853"/>
<path d="M109.636 348.669V363.442L121 354.919V350.373C121 346.157 116.187 343.754 112.818 346.282" fill="#FBBC04"/>
<path d="M82.3638 363.442V348.669L96 358.896L109.636 348.669V363.441L96 373.669" fill="#EA4335"/>
<path d="M71 350.373V354.919L82.3635 363.442V348.669L79.1818 346.283C75.8068 343.754 71 346.158 71 350.373Z" fill="#C5221F"/>
</svg>
