<svg width="241" height="267" viewBox="0 0 241 267" fill="none" xmlns="http://www.w3.org/2000/svg">
<path d="M32.872 0H14.0185C1.58358 0 -4.70061 15.1091 4.1242 23.934L80.7393 100.549C102.668 122.478 138.101 122.478 160.029 100.549L236.645 23.934C245.469 15.1091 239.185 0 226.75 0H207.897C196.799 0 186.102 4.41241 178.214 12.3013L130.346 60.1692C124.864 65.6512 116.039 65.6512 110.557 60.1692L62.6888 12.3013C54.6663 4.41241 43.9698 0 32.872 0Z" fill="white"/>
<path d="M32.872 267H14.0185C1.58358 267 -4.70061 251.892 4.1242 243.068L80.7393 166.452C102.668 144.524 138.101 144.524 160.029 166.452L236.645 243.068C245.469 251.892 239.185 267 226.75 267H207.897C196.799 267 186.102 262.588 178.214 254.699L130.346 206.831C124.864 201.349 116.039 201.349 110.557 206.831L62.6888 254.699C54.6663 262.588 43.9698 267 32.872 267Z" fill="white"/>
</svg>
