<svg width="247" height="70" viewBox="0 0 247 70" fill="none" xmlns="http://www.w3.org/2000/svg">
<path d="M93.55 50V15H98.85L116.4 41.35V15H121.7V50H116.4L98.85 23.65V50H93.55ZM140.204 50.6C137.837 50.6 135.704 50.0667 133.804 49C131.937 47.9 130.454 46.3833 129.354 44.45C128.254 42.4833 127.704 40.2 127.704 37.6C127.704 35 128.254 32.7333 129.354 30.8C130.487 28.8333 132.004 27.3167 133.904 26.25C135.804 25.15 137.921 24.6 140.254 24.6C142.621 24.6 144.737 25.15 146.604 26.25C148.504 27.3167 150.004 28.8333 151.104 30.8C152.237 32.7333 152.804 35 152.804 37.6C152.804 40.2 152.237 42.4833 151.104 44.45C150.004 46.3833 148.504 47.9 146.604 49C144.704 50.0667 142.571 50.6 140.204 50.6ZM140.204 46.05C141.471 46.05 142.637 45.7333 143.704 45.1C144.804 44.4667 145.687 43.5333 146.354 42.3C147.021 41.0333 147.354 39.4667 147.354 37.6C147.354 35.7333 147.021 34.1833 146.354 32.95C145.721 31.6833 144.854 30.7333 143.754 30.1C142.687 29.4667 141.521 29.15 140.254 29.15C138.987 29.15 137.804 29.4667 136.704 30.1C135.637 30.7333 134.771 31.6833 134.104 32.95C133.437 34.1833 133.104 35.7333 133.104 37.6C133.104 39.4667 133.437 41.0333 134.104 42.3C134.771 43.5333 135.637 44.4667 136.704 45.1C137.771 45.7333 138.937 46.05 140.204 46.05ZM167.959 50C165.526 50 163.592 49.4167 162.159 48.25C160.726 47.05 160.009 44.9333 160.009 41.9V29.65H155.759V25.2H160.009L160.659 18.9H165.309V25.2H172.309V29.65H165.309V41.9C165.309 43.2667 165.592 44.2167 166.159 44.75C166.759 45.25 167.776 45.5 169.209 45.5H172.059V50H167.959ZM180.774 20.5C179.774 20.5 178.94 20.2 178.274 19.6C177.64 18.9667 177.324 18.1833 177.324 17.25C177.324 16.3167 177.64 15.55 178.274 14.95C178.94 14.3167 179.774 14 180.774 14C181.774 14 182.59 14.3167 183.224 14.95C183.89 15.55 184.224 16.3167 184.224 17.25C184.224 18.1833 183.89 18.9667 183.224 19.6C182.59 20.2 181.774 20.5 180.774 20.5ZM178.124 50V25.2H183.424V50H178.124ZM202.02 50.6C199.654 50.6 197.52 50.0667 195.62 49C193.754 47.9 192.27 46.3833 191.17 44.45C190.07 42.4833 189.52 40.2 189.52 37.6C189.52 35 190.07 32.7333 191.17 30.8C192.304 28.8333 193.82 27.3167 195.72 26.25C197.62 25.15 199.737 24.6 202.07 24.6C204.437 24.6 206.554 25.15 208.42 26.25C210.32 27.3167 211.82 28.8333 212.92 30.8C214.054 32.7333 214.62 35 214.62 37.6C214.62 40.2 214.054 42.4833 212.92 44.45C211.82 46.3833 210.32 47.9 208.42 49C206.52 50.0667 204.387 50.6 202.02 50.6ZM202.02 46.05C203.287 46.05 204.454 45.7333 205.52 45.1C206.62 44.4667 207.504 43.5333 208.17 42.3C208.837 41.0333 209.17 39.4667 209.17 37.6C209.17 35.7333 208.837 34.1833 208.17 32.95C207.537 31.6833 206.67 30.7333 205.57 30.1C204.504 29.4667 203.337 29.15 202.07 29.15C200.804 29.15 199.62 29.4667 198.52 30.1C197.454 30.7333 196.587 31.6833 195.92 32.95C195.254 34.1833 194.92 35.7333 194.92 37.6C194.92 39.4667 195.254 41.0333 195.92 42.3C196.587 43.5333 197.454 44.4667 198.52 45.1C199.587 45.7333 200.754 46.05 202.02 46.05ZM220.352 50V25.2H225.052L225.452 29.55C226.219 28.0167 227.335 26.8167 228.802 25.95C230.302 25.05 232.019 24.6 233.952 24.6C236.952 24.6 239.302 25.5333 241.002 27.4C242.735 29.2667 243.602 32.05 243.602 35.75V50H238.352V36.3C238.352 31.5 236.385 29.1 232.452 29.1C230.485 29.1 228.852 29.8 227.552 31.2C226.285 32.6 225.652 34.6 225.652 37.2V50H220.352Z" fill="white"/>
<path d="M4.21149 3.01963L42.9445 0.159104C47.7022 -0.249168 48.9247 0.0261542 51.916 2.20073L64.2802 10.9111C66.3197 12.4089 66.9986 12.8174 66.9986 14.4484V62.2181C66.9986 65.2118 65.9112 66.9826 62.1056 67.2535L17.1265 69.9763C14.2704 70.1116 12.9103 69.7034 11.4146 67.7971L2.30988 55.9579C0.67679 53.7786 0 52.1474 0 50.2411V7.77967C0 5.33213 1.08742 3.2905 4.21149 3.01963Z" fill="black"/>
<path d="M42.9445 0.159104L4.21149 3.01963C1.08742 3.2905 0 5.33213 0 7.77967V50.2413C0 52.1476 0.676529 53.7786 2.30988 55.9579L11.4146 67.7971C12.9103 69.7034 14.2704 70.1116 17.1265 69.9763L62.1056 67.2535C65.9088 66.9826 66.9986 65.2118 66.9986 62.2181V14.4484C66.9986 12.9014 66.3872 12.4557 64.5882 11.1351L64.2781 10.9111L51.916 2.20073C48.9247 0.0261542 47.7025 -0.249168 42.9445 0.159104ZM18.1438 13.6666C14.4712 13.914 13.6381 13.97 11.5523 12.2735L6.24866 8.05499C5.70954 7.50906 5.98015 6.82756 7.33818 6.69225L44.5732 3.97174C47.6998 3.69878 49.3285 4.78829 50.5512 5.7404L56.9373 10.3675C57.2102 10.5049 57.8894 11.3193 57.0726 11.3193L18.6198 13.6339L18.1438 13.6666ZM13.8622 61.8098V21.2569C13.8622 19.4858 14.4057 18.6693 16.0344 18.5316L60.1993 15.9462C61.6973 15.8109 62.3741 16.7627 62.3741 18.5316V58.8137C62.3741 60.5848 62.1009 62.0825 59.6557 62.2181L17.3924 64.668C14.9472 64.8033 13.8622 63.9891 13.8622 61.8098ZM55.5819 23.4312C55.8525 24.6562 55.5819 25.8813 54.3568 26.0213L52.3199 26.4249V56.3659C50.5512 57.3178 48.9226 57.8616 47.5619 57.8616C45.3876 57.8616 44.8438 57.1801 43.2151 55.1409L29.8945 34.1831V54.4596L34.108 55.4138C34.108 55.4138 34.108 57.864 30.7086 57.864L21.3356 58.4076C21.0627 57.8616 21.3356 56.5012 22.2857 56.2306L24.7329 55.5515V28.7421L21.3359 28.4668C21.0627 27.242 21.7416 25.4731 23.6458 25.3354L33.7024 24.6589L47.5622 45.8872V27.1067L44.0296 26.7005C43.7566 25.2001 44.8438 24.1106 46.2018 23.9776L55.5819 23.4312Z" fill="white"/>
</svg>
