<svg width="216" height="70" viewBox="0 0 216 70" fill="none" xmlns="http://www.w3.org/2000/svg">
<path d="M105.1 50.6C102.533 50.6 100.283 50.15 98.35 49.25C96.4167 48.35 94.9 47.0667 93.8 45.4C92.7333 43.7333 92.1833 41.75 92.15 39.45H97.75C97.7833 41.3167 98.4333 42.9 99.7 44.2C100.967 45.5 102.75 46.15 105.05 46.15C107.083 46.15 108.667 45.6667 109.8 44.7C110.967 43.7 111.55 42.4333 111.55 40.9C111.55 39.6667 111.267 38.6667 110.7 37.9C110.167 37.1333 109.417 36.5 108.45 36C107.517 35.5 106.433 35.05 105.2 34.65C103.967 34.25 102.667 33.8167 101.3 33.35C98.6 32.45 96.5667 31.2833 95.2 29.85C93.8667 28.4167 93.2 26.5333 93.2 24.2C93.1667 22.2333 93.6167 20.5167 94.55 19.05C95.5167 17.5833 96.85 16.45 98.55 15.65C100.283 14.8167 102.3 14.4 104.6 14.4C106.867 14.4 108.85 14.8167 110.55 15.65C112.283 16.4833 113.633 17.65 114.6 19.15C115.567 20.6167 116.067 22.3333 116.1 24.3H110.5C110.5 23.4 110.267 22.55 109.8 21.75C109.333 20.9167 108.65 20.2333 107.75 19.7C106.85 19.1667 105.75 18.9 104.45 18.9C102.783 18.8667 101.4 19.2833 100.3 20.15C99.2333 21.0167 98.7 22.2167 98.7 23.75C98.7 25.1167 99.1 26.1667 99.9 26.9C100.7 27.6333 101.8 28.25 103.2 28.75C104.6 29.2167 106.2 29.7667 108 30.4C109.733 30.9667 111.283 31.65 112.65 32.45C114.017 33.25 115.1 34.3 115.9 35.6C116.733 36.9 117.15 38.55 117.15 40.55C117.15 42.3167 116.7 43.9667 115.8 45.5C114.9 47 113.55 48.2333 111.75 49.2C109.95 50.1333 107.733 50.6 105.1 50.6ZM122.745 50V14H128.045V50H122.745ZM143.156 50.6C141.056 50.6 139.323 50.25 137.956 49.55C136.59 48.85 135.573 47.9333 134.906 46.8C134.24 45.6333 133.906 44.3667 133.906 43C133.906 40.6 134.84 38.7 136.706 37.3C138.573 35.9 141.24 35.2 144.706 35.2H151.206V34.75C151.206 32.8167 150.673 31.3667 149.606 30.4C148.573 29.4333 147.223 28.95 145.556 28.95C144.09 28.95 142.806 29.3167 141.706 30.05C140.64 30.75 139.99 31.8 139.756 33.2H134.456C134.623 31.4 135.223 29.8667 136.256 28.6C137.323 27.3 138.656 26.3167 140.256 25.65C141.89 24.95 143.673 24.6 145.606 24.6C149.073 24.6 151.756 25.5167 153.656 27.35C155.556 29.15 156.506 31.6167 156.506 34.75V50H151.906L151.456 45.75C150.756 47.1167 149.74 48.2667 148.406 49.2C147.073 50.1333 145.323 50.6 143.156 50.6ZM144.206 46.3C145.64 46.3 146.84 45.9667 147.806 45.3C148.806 44.6 149.573 43.6833 150.106 42.55C150.673 41.4167 151.023 40.1667 151.156 38.8H145.256C143.156 38.8 141.656 39.1667 140.756 39.9C139.89 40.6333 139.456 41.55 139.456 42.65C139.456 43.7833 139.873 44.6833 140.706 45.35C141.573 45.9833 142.74 46.3 144.206 46.3ZM174.436 50.6C172.003 50.6 169.819 50.05 167.886 48.95C165.986 47.85 164.486 46.3333 163.386 44.4C162.319 42.4333 161.786 40.1667 161.786 37.6C161.786 35.0333 162.319 32.7833 163.386 30.85C164.486 28.8833 165.986 27.35 167.886 26.25C169.819 25.15 172.003 24.6 174.436 24.6C177.503 24.6 180.069 25.4 182.136 27C184.236 28.6 185.586 30.7667 186.186 33.5H180.636C180.303 32.1333 179.569 31.0667 178.436 30.3C177.303 29.5333 175.969 29.15 174.436 29.15C173.136 29.15 171.936 29.4833 170.836 30.15C169.736 30.7833 168.853 31.7333 168.186 33C167.519 34.2333 167.186 35.7667 167.186 37.6C167.186 39.4333 167.519 40.9833 168.186 42.25C168.853 43.4833 169.736 44.4333 170.836 45.1C171.936 45.7667 173.136 46.1 174.436 46.1C175.969 46.1 177.303 45.7167 178.436 44.95C179.569 44.1833 180.303 43.1 180.636 41.7H186.186C185.619 44.3667 184.286 46.5167 182.186 48.15C180.086 49.7833 177.503 50.6 174.436 50.6ZM191.934 50V14H197.234V35.45L206.734 25.2H213.084L202.534 36.45L214.634 50H207.934L197.234 37.3V50H191.934Z" fill="white"/>
<path d="M14.7602 44.2517C14.7602 48.3201 11.475 51.6083 7.41007 51.6083C3.34531 51.6083 0.0600586 48.3201 0.0600586 44.2517C0.0600586 40.1832 3.34531 36.895 7.41007 36.895H14.7602V44.2517ZM18.4354 44.2517C18.4354 40.1832 21.7206 36.895 25.7854 36.895C29.8503 36.895 33.1355 40.1832 33.1355 44.2517V62.6433C33.1355 66.7118 29.8503 70 25.7854 70C21.7206 70 18.4354 66.7118 18.4354 62.6433V44.2517Z" fill="white"/>
<path d="M25.781 14.7133C21.7163 14.7133 18.431 11.4251 18.431 7.35659C18.431 3.28819 21.7163 0 25.781 0C29.846 0 33.1312 3.28819 33.1312 7.35659V14.7133H25.781ZM25.781 18.4474C29.846 18.4474 33.1312 21.7356 33.1312 25.804C33.1312 29.8726 29.846 33.1607 25.781 33.1607H7.35015C3.28524 33.1607 0 29.8726 0 25.804C0 21.7356 3.28524 18.4474 7.35015 18.4474H25.781Z" fill="white"/>
<path d="M55.2403 25.804C55.2403 21.7356 58.5257 18.4474 62.5905 18.4474C66.6554 18.4474 69.9406 21.7356 69.9406 25.804C69.9406 29.8726 66.6554 33.1607 62.5905 33.1607H55.2403V25.804ZM51.5653 25.804C51.5653 29.8726 48.2801 33.1607 44.2151 33.1607C40.1504 33.1607 36.865 29.8726 36.865 25.804V7.35659C36.865 3.28819 40.1504 0 44.2151 0C48.2801 0 51.5653 3.28819 51.5653 7.35659V25.804Z" fill="white"/>
<path d="M44.2151 55.2867C48.2801 55.2867 51.5653 58.5749 51.5653 62.6433C51.5653 66.7118 48.2801 70 44.2151 70C40.1504 70 36.865 66.7118 36.865 62.6433V55.2867H44.2151ZM44.2151 51.6083C40.1504 51.6083 36.865 48.3201 36.865 44.2517C36.865 40.1832 40.1504 36.895 44.2151 36.895H62.6462C66.7109 36.895 69.9963 40.1832 69.9963 44.2517C69.9963 48.3201 66.7109 51.6083 62.6462 51.6083H44.2151Z" fill="white"/>
</svg>
